<?xml version="1.0" encoding="utf-8" ?>
<svg baseProfile="tiny" height="200" version="1.2" width="200" xmlns="http://www.w3.org/2000/svg" xmlns:ev="http://www.w3.org/2001/xml-events" xmlns:xlink="http://www.w3.org/1999/xlink"><defs /><rect fill="black" height="200" width="200" x="0" y="0" /><text fill="white" font-family="Arial" font-size="16" text-anchor="middle" x="100" y="20">Complex 2: 1000000110000010100001001000100010010000101000001100000010000001</text><line stroke="#333333" stroke-width="1" x1="40" x2="200" y1="40" y2="40" /><line stroke="#333333" stroke-width="1" x1="40" x2="200" y1="60" y2="60" /><line stroke="#333333" stroke-width="1" x1="40" x2="200" y1="80" y2="80" /><line stroke="#333333" stroke-width="1" x1="40" x2="200" y1="100" y2="100" /><line stroke="#333333" stroke-width="1" x1="40" x2="200" y1="120" y2="120" /><line stroke="#333333" stroke-width="1" x1="40" x2="200" y1="140" y2="140" /><line stroke="#333333" stroke-width="1" x1="40" x2="200" y1="160" y2="160" /><line stroke="#333333" stroke-width="1" x1="40" x2="200" y1="180" y2="180" /><line stroke="#333333" stroke-width="1" x1="40" x2="200" y1="200" y2="200" /><line stroke="#333333" stroke-width="1" x1="40" x2="40" y1="40" y2="200" /><line stroke="#333333" stroke-width="1" x1="60" x2="60" y1="40" y2="200" /><line stroke="#333333" stroke-width="1" x1="80" x2="80" y1="40" y2="200" /><line stroke="#333333" stroke-width="1" x1="100" x2="100" y1="40" y2="200" /><line stroke="#333333" stroke-width="1" x1="120" x2="120" y1="40" y2="200" /><line stroke="#333333" stroke-width="1" x1="140" x2="140" y1="40" y2="200" /><line stroke="#333333" stroke-width="1" x1="160" x2="160" y1="40" y2="200" /><line stroke="#333333" stroke-width="1" x1="180" x2="180" y1="40" y2="200" /><line stroke="#333333" stroke-width="1" x1="200" x2="200" y1="40" y2="200" /><circle cx="50" cy="50" fill="#1976d2" r="5" /><circle cx="190" cy="50" fill="#1976d2" r="5" /><circle cx="50" cy="70" fill="#1976d2" r="5" /><circle cx="170" cy="70" fill="#1976d2" r="5" /><circle cx="50" cy="90" fill="#1976d2" r="5" /><circle cx="150" cy="90" fill="#1976d2" r="5" /><circle cx="50" cy="110" fill="#1976d2" r="5" /><circle cx="130" cy="110" fill="#1976d2" r="5" /><circle cx="50" cy="130" fill="#1976d2" r="5" /><circle cx="110" cy="130" fill="#1976d2" r="5" /><circle cx="50" cy="150" fill="#1976d2" r="5" /><circle cx="90" cy="150" fill="#1976d2" r="5" /><circle cx="50" cy="170" fill="#1976d2" r="5" /><circle cx="70" cy="170" fill="#1976d2" r="5" /><circle cx="50" cy="190" fill="#1976d2" r="5" /><circle cx="190" cy="190" fill="#1976d2" r="5" /></svg>