<?xml version="1.0" encoding="utf-8" ?>
<svg baseProfile="tiny" height="250" version="1.2" width="800" xmlns="http://www.w3.org/2000/svg" xmlns:ev="http://www.w3.org/2001/xml-events" xmlns:xlink="http://www.w3.org/1999/xlink"><defs /><rect fill="black" height="250" width="800" x="0" y="0" /><text fill="white" font-family="Arial" font-size="20" text-anchor="middle" x="400" y="30">Complex Glyphs (64-bit)</text><g transform="translate(50, 50) scale(0.8)"><circle cx="50" cy="50" fill="#0d47a1" r="5" /><circle cx="50" cy="70" fill="#0d47a1" r="5" /><circle cx="70" cy="70" fill="#0d47a1" r="5" /><circle cx="50" cy="90" fill="#0d47a1" r="5" /><circle cx="90" cy="90" fill="#0d47a1" r="5" /><circle cx="50" cy="110" fill="#0d47a1" r="5" /><circle cx="110" cy="110" fill="#0d47a1" r="5" /><circle cx="50" cy="130" fill="#0d47a1" r="5" /><circle cx="130" cy="130" fill="#0d47a1" r="5" /><circle cx="50" cy="150" fill="#0d47a1" r="5" /><circle cx="150" cy="150" fill="#0d47a1" r="5" /><circle cx="50" cy="170" fill="#0d47a1" r="5" /><circle cx="170" cy="170" fill="#0d47a1" r="5" /><circle cx="50" cy="190" fill="#0d47a1" r="5" /><circle cx="190" cy="190" fill="#0d47a1" r="5" /><text fill="white" font-family="Arial" font-size="14" text-anchor="middle" x="120" y="230">Complex 1</text></g><g transform="translate(230, 50) scale(0.8)"><circle cx="50" cy="50" fill="#1976d2" r="5" /><circle cx="190" cy="50" fill="#1976d2" r="5" /><circle cx="50" cy="70" fill="#1976d2" r="5" /><circle cx="170" cy="70" fill="#1976d2" r="5" /><circle cx="50" cy="90" fill="#1976d2" r="5" /><circle cx="150" cy="90" fill="#1976d2" r="5" /><circle cx="50" cy="110" fill="#1976d2" r="5" /><circle cx="130" cy="110" fill="#1976d2" r="5" /><circle cx="50" cy="130" fill="#1976d2" r="5" /><circle cx="110" cy="130" fill="#1976d2" r="5" /><circle cx="50" cy="150" fill="#1976d2" r="5" /><circle cx="90" cy="150" fill="#1976d2" r="5" /><circle cx="50" cy="170" fill="#1976d2" r="5" /><circle cx="70" cy="170" fill="#1976d2" r="5" /><circle cx="50" cy="190" fill="#1976d2" r="5" /><circle cx="190" cy="190" fill="#1976d2" r="5" /><text fill="white" font-family="Arial" font-size="14" text-anchor="middle" x="120" y="230">Complex 2</text></g><g transform="translate(410, 50) scale(0.8)"><circle cx="50" cy="50" fill="#42a5f5" r="5" /><circle cx="90" cy="50" fill="#42a5f5" r="5" /><circle cx="130" cy="50" fill="#42a5f5" r="5" /><circle cx="170" cy="50" fill="#42a5f5" r="5" /><circle cx="70" cy="70" fill="#42a5f5" r="5" /><circle cx="110" cy="70" fill="#42a5f5" r="5" /><circle cx="150" cy="70" fill="#42a5f5" r="5" /><circle cx="190" cy="70" fill="#42a5f5" r="5" /><circle cx="50" cy="90" fill="#42a5f5" r="5" /><circle cx="90" cy="90" fill="#42a5f5" r="5" /><circle cx="130" cy="90" fill="#42a5f5" r="5" /><circle cx="170" cy="90" fill="#42a5f5" r="5" /><circle cx="70" cy="110" fill="#42a5f5" r="5" /><circle cx="110" cy="110" fill="#42a5f5" r="5" /><circle cx="150" cy="110" fill="#42a5f5" r="5" /><circle cx="190" cy="110" fill="#42a5f5" r="5" /><circle cx="50" cy="130" fill="#42a5f5" r="5" /><circle cx="90" cy="130" fill="#42a5f5" r="5" /><circle cx="130" cy="130" fill="#42a5f5" r="5" /><circle cx="170" cy="130" fill="#42a5f5" r="5" /><circle cx="70" cy="150" fill="#42a5f5" r="5" /><circle cx="110" cy="150" fill="#42a5f5" r="5" /><circle cx="150" cy="150" fill="#42a5f5" r="5" /><circle cx="190" cy="150" fill="#42a5f5" r="5" /><circle cx="50" cy="170" fill="#42a5f5" r="5" /><circle cx="90" cy="170" fill="#42a5f5" r="5" /><circle cx="130" cy="170" fill="#42a5f5" r="5" /><circle cx="170" cy="170" fill="#42a5f5" r="5" /><circle cx="70" cy="190" fill="#42a5f5" r="5" /><circle cx="110" cy="190" fill="#42a5f5" r="5" /><circle cx="150" cy="190" fill="#42a5f5" r="5" /><circle cx="190" cy="190" fill="#42a5f5" r="5" /><text fill="white" font-family="Arial" font-size="14" text-anchor="middle" x="120" y="230">Complex 3</text></g></svg>