<?xml version="1.0" encoding="utf-8" ?>
<svg baseProfile="tiny" height="250" version="1.2" width="800" xmlns="http://www.w3.org/2000/svg" xmlns:ev="http://www.w3.org/2001/xml-events" xmlns:xlink="http://www.w3.org/1999/xlink"><defs /><rect fill="black" height="250" width="800" x="0" y="0" /><text fill="white" font-family="Arial" font-size="20" text-anchor="middle" x="400" y="30">Primary Glyphs (4-bit)</text><g transform="translate(50, 50) scale(0.8)"><line stroke="#3a0ca3" stroke-width="3" x1="40" x2="160" y1="40" y2="160" /><circle cx="40" cy="40" fill="#3a0ca3" r="5" /><circle cx="160" cy="160" fill="#3a0ca3" r="5" /><text fill="white" font-family="Arial" font-size="14" text-anchor="middle" x="100" y="190">Alpha</text></g><g transform="translate(230, 50) scale(0.8)"><path d="M40,40 L40,100 L100,100" fill="none" stroke="#4361ee" stroke-width="3" /><circle cx="40" cy="40" fill="#4361ee" r="5" /><circle cx="40" cy="100" fill="#4361ee" r="5" /><circle cx="100" cy="100" fill="#4361ee" r="5" /><text fill="white" font-family="Arial" font-size="14" text-anchor="middle" x="100" y="190">Beta</text></g><g transform="translate(410, 50) scale(0.8)"><path d="M40,160 L100,100 L160,40" fill="none" stroke="#4cc9f0" stroke-width="3" /><circle cx="40" cy="160" fill="#4cc9f0" r="5" /><circle cx="100" cy="100" fill="#4cc9f0" r="5" /><circle cx="160" cy="40" fill="#4cc9f0" r="5" /><text fill="white" font-family="Arial" font-size="14" text-anchor="middle" x="100" y="190">Gamma</text></g><g transform="translate(590, 50) scale(0.8)"><circle cx="40" cy="40" fill="#7209b7" r="10" /><circle cx="160" cy="160" fill="#7209b7" r="10" /><line stroke="#7209b7" stroke-dasharray="5,5" stroke-width="1" x1="40" x2="160" y1="40" y2="160" /><text fill="white" font-family="Arial" font-size="14" text-anchor="middle" x="100" y="190">Delta</text></g></svg>