<?xml version="1.0" encoding="utf-8" ?>
<svg baseProfile="tiny" height="250" version="1.2" width="800" xmlns="http://www.w3.org/2000/svg" xmlns:ev="http://www.w3.org/2001/xml-events" xmlns:xlink="http://www.w3.org/1999/xlink"><defs /><rect fill="black" height="250" width="800" x="0" y="0" /><text fill="white" font-family="Arial" font-size="20" text-anchor="middle" x="400" y="30">Composite Glyphs (16-bit)</text><g transform="translate(50, 50) scale(0.8)"><circle cx="55" cy="85" fill="#7400b8" r="5" /><circle cx="85" cy="85" fill="#7400b8" r="5" /><circle cx="115" cy="85" fill="#7400b8" r="5" /><circle cx="145" cy="85" fill="#7400b8" r="5" /><circle cx="55" cy="115" fill="#7400b8" r="5" /><circle cx="85" cy="115" fill="#7400b8" r="5" /><circle cx="115" cy="115" fill="#7400b8" r="5" /><circle cx="145" cy="115" fill="#7400b8" r="5" /><text fill="white" font-family="Arial" font-size="14" text-anchor="middle" x="100" y="190">Composite 1</text></g><g transform="translate(230, 50) scale(0.8)"><circle cx="55" cy="55" fill="#6930c3" r="5" /><circle cx="85" cy="55" fill="#6930c3" r="5" /><circle cx="55" cy="85" fill="#6930c3" r="5" /><circle cx="85" cy="85" fill="#6930c3" r="5" /><circle cx="55" cy="115" fill="#6930c3" r="5" /><circle cx="85" cy="115" fill="#6930c3" r="5" /><circle cx="55" cy="145" fill="#6930c3" r="5" /><circle cx="85" cy="145" fill="#6930c3" r="5" /><text fill="white" font-family="Arial" font-size="14" text-anchor="middle" x="100" y="190">Composite 2</text></g><g transform="translate(410, 50) scale(0.8)"><circle cx="115" cy="55" fill="#5e60ce" r="5" /><circle cx="145" cy="55" fill="#5e60ce" r="5" /><circle cx="55" cy="85" fill="#5e60ce" r="5" /><circle cx="85" cy="85" fill="#5e60ce" r="5" /><circle cx="115" cy="85" fill="#5e60ce" r="5" /><circle cx="145" cy="85" fill="#5e60ce" r="5" /><circle cx="55" cy="115" fill="#5e60ce" r="5" /><circle cx="85" cy="115" fill="#5e60ce" r="5" /><circle cx="115" cy="115" fill="#5e60ce" r="5" /><circle cx="145" cy="115" fill="#5e60ce" r="5" /><text fill="white" font-family="Arial" font-size="14" text-anchor="middle" x="100" y="190">Composite 3</text></g><g transform="translate(590, 50) scale(0.8)"><circle cx="145" cy="55" fill="#5390d9" r="5" /><circle cx="55" cy="85" fill="#5390d9" r="5" /><circle cx="85" cy="85" fill="#5390d9" r="5" /><circle cx="115" cy="85" fill="#5390d9" r="5" /><circle cx="85" cy="115" fill="#5390d9" r="5" /><circle cx="115" cy="115" fill="#5390d9" r="5" /><circle cx="145" cy="115" fill="#5390d9" r="5" /><circle cx="55" cy="145" fill="#5390d9" r="5" /><text fill="white" font-family="Arial" font-size="14" text-anchor="middle" x="100" y="190">Composite 4</text></g><g transform="translate(770, 50) scale(0.8)"><circle cx="55" cy="55" fill="#4ea8de" r="5" /><circle cx="55" cy="85" fill="#4ea8de" r="5" /><circle cx="85" cy="85" fill="#4ea8de" r="5" /><circle cx="85" cy="115" fill="#4ea8de" r="5" /><circle cx="115" cy="115" fill="#4ea8de" r="5" /><circle cx="145" cy="115" fill="#4ea8de" r="5" /><circle cx="115" cy="145" fill="#4ea8de" r="5" /><circle cx="145" cy="145" fill="#4ea8de" r="5" /><text fill="white" font-family="Arial" font-size="14" text-anchor="middle" x="100" y="190">Composite 5</text></g></svg>