<?xml version="1.0" encoding="utf-8" ?>
<svg baseProfile="tiny" height="200" version="1.2" width="200" xmlns="http://www.w3.org/2000/svg" xmlns:ev="http://www.w3.org/2001/xml-events" xmlns:xlink="http://www.w3.org/1999/xlink"><defs /><rect fill="black" height="200" width="200" x="0" y="0" /><text fill="white" font-family="Arial" font-size="16" text-anchor="middle" x="100" y="20">Composite 1: 0000111111110000</text><line stroke="#333333" stroke-width="1" x1="40" x2="160" y1="40" y2="40" /><line stroke="#333333" stroke-width="1" x1="40" x2="160" y1="70" y2="70" /><line stroke="#333333" stroke-width="1" x1="40" x2="160" y1="100" y2="100" /><line stroke="#333333" stroke-width="1" x1="40" x2="160" y1="130" y2="130" /><line stroke="#333333" stroke-width="1" x1="40" x2="160" y1="160" y2="160" /><line stroke="#333333" stroke-width="1" x1="40" x2="40" y1="40" y2="160" /><line stroke="#333333" stroke-width="1" x1="70" x2="70" y1="40" y2="160" /><line stroke="#333333" stroke-width="1" x1="100" x2="100" y1="40" y2="160" /><line stroke="#333333" stroke-width="1" x1="130" x2="130" y1="40" y2="160" /><line stroke="#333333" stroke-width="1" x1="160" x2="160" y1="40" y2="160" /><circle cx="55" cy="85" fill="#7400b8" r="5" /><circle cx="85" cy="85" fill="#7400b8" r="5" /><circle cx="115" cy="85" fill="#7400b8" r="5" /><circle cx="145" cy="85" fill="#7400b8" r="5" /><circle cx="55" cy="115" fill="#7400b8" r="5" /><circle cx="85" cy="115" fill="#7400b8" r="5" /><circle cx="115" cy="115" fill="#7400b8" r="5" /><circle cx="145" cy="115" fill="#7400b8" r="5" /></svg>