<?xml version="1.0" encoding="utf-8" ?>
<svg baseProfile="tiny" height="800" version="1.2" width="800" xmlns="http://www.w3.org/2000/svg" xmlns:ev="http://www.w3.org/2001/xml-events" xmlns:xlink="http://www.w3.org/1999/xlink"><defs /><rect fill="black" height="800" width="800" x="0" y="0" /><text fill="white" font-family="Arial" font-size="24" text-anchor="middle" x="400" y="40">Pentagonal Resonance Structure (Master Glyph)</text><polygon fill="none" points="642.7051,576.3356 307.2949,685.317 100.0,400.0 307.2949,114.683 642.7051,223.6644" stroke="#7209b7" stroke-width="3" /><polygon fill="none" points="594.1641,541.0685 325.8359,628.2536 160.0,400.0 325.8359,171.7464 594.1641,258.9315" stroke="#560bad" stroke-width="2" /><polygon fill="none" points="545.6231,505.8013 344.3769,571.1902 220.0,400.0 344.3769,228.8098 545.6231,294.1987" stroke="#480ca8" stroke-width="2" /><polygon fill="none" points="497.082,470.5342 362.918,514.1268 280.0,400.0 362.918,285.8732 497.082,329.4658" stroke="#3a0ca3" stroke-width="2" /><line stroke="#480ca8" stroke-opacity="0.7" stroke-width="1.5" x1="642.7051" x2="497.082" y1="576.3356" y2="470.5342" /><line stroke="#480ca8" stroke-opacity="0.7" stroke-width="1.5" x1="307.2949" x2="362.918" y1="685.317" y2="514.1268" /><line stroke="#480ca8" stroke-opacity="0.7" stroke-width="1.5" x1="100.0" x2="280.0" y1="400.0" y2="400.0" /><line stroke="#480ca8" stroke-opacity="0.7" stroke-width="1.5" x1="307.2949" x2="362.918" y1="114.683" y2="285.8732" /><line stroke="#480ca8" stroke-opacity="0.7" stroke-width="1.5" x1="642.7051" x2="497.082" y1="223.6644" y2="329.4658" /><circle cx="400" cy="400" fill="#3f37c9" fill-opacity="0.9" r="45.0" /><circle cx="642.7051" cy="576.3356" fill="#7209b7" fill-opacity="0.9" r="9.0" /><circle cx="307.2949" cy="685.317" fill="#7209b7" fill-opacity="0.9" r="9.0" /><circle cx="100.0" cy="400.0" fill="#7209b7" fill-opacity="0.9" r="9.0" /><circle cx="307.2949" cy="114.683" fill="#7209b7" fill-opacity="0.9" r="9.0" /><circle cx="642.7051" cy="223.6644" fill="#7209b7" fill-opacity="0.9" r="9.0" /><polyline fill="none" points="382.7188,453.186 382.673,453.1941 382.6227,453.1965 382.5685,453.1922 382.5108,453.1802 382.4506,453.1594 382.3889,453.1289 382.3268,453.0876 382.2659,453.0349 382.2077,452.97 382.1542,452.8923 382.1074,452.8017 382.0697,452.6981 382.0433,452.5818 382.031,452.4533 382.0353,452.3138 382.0591,452.1648 382.105,452.0081 382.1757,451.8463 382.2737,451.6824 382.4013,451.5199 382.5605,451.3631 382.7527,451.2166 382.979,451.0858 383.2397,450.9764 383.5344,450.8948 383.8618,450.8475 384.2195,450.8416 384.604,450.8843 385.0108,450.9828 385.4337,451.1441 385.8654,451.375 386.2969,451.682 386.7179,452.0704 387.1164,452.5447 387.4789,453.1082 387.7908,453.7624 388.0358,454.507 388.1967,455.3394 388.2554,456.2545 388.193,457.2444 387.9906,458.2979 387.6292,459.4005 387.0904,460.534 386.3571,461.6764 385.414,462.8016 384.2481,463.8798 382.8495,464.8768 381.2125,465.7551 379.3359,466.4733 377.2241,466.9869 374.888,467.2487 372.3458,467.2098 369.6236,466.82 366.7563,466.029 363.7883,464.7877 360.7738,463.0496 357.7776,460.772 354.8748,457.9181 352.1512,454.4587 349.7027,450.3742 347.6349,445.6567 346.0623,440.3121 345.1069,434.3626 344.8965,427.8485 345.5626,420.8307 347.2382,413.3925 350.0544,405.6415 354.1372,397.711 359.6036,389.7614 366.5569,381.9808 375.0824,374.5849 385.2422,367.8173 397.0692,361.9474 410.5622,357.2689 425.6795,354.0969 442.3331,352.7635 460.3834,353.6132 479.6332,356.9964 499.8232,363.2619 520.6271,372.7486 541.6488,385.7755 562.4193,402.6304 582.3961,423.558 600.9639,448.7466 617.4364,478.3138 631.0613,512.2919 641.0271,550.6127 646.4725,593.0917 646.4985,639.4131 640.1839,689.1149 626.6037,741.5755 604.8504,796.0011 574.0591,851.4159 533.4356,906.6545 482.2871,960.3579 420.0565,1010.9729 346.3589,1056.757 261.0197,1095.788 164.115,1125.9795" stroke="#3a0ca3" stroke-opacity="0.7" stroke-width="1.5" /><polyline fill="none" points="344.0769,400.0 344.0551,399.9589 344.0372,399.9119 344.0245,399.8589 344.0182,399.8004 344.0193,399.7367 344.0293,399.6685 344.0494,399.5968 344.0807,399.5225 344.1245,399.4472 344.1818,399.3723 344.2535,399.2998 344.3403,399.2319 344.4429,399.1708 344.5612,399.1194 344.6952,399.0805 344.8443,399.057 345.0075,399.0522 345.1832,399.0695 345.3694,399.112 345.5634,399.1832 345.7617,399.2861 345.9604,399.4237 346.1547,399.5985 346.3393,399.8126 346.508,400.0676 346.6541,400.3644 346.7703,400.7027 346.8485,401.0817 346.8806,401.4989 346.8579,401.951 346.7716,402.433 346.613,402.9382 346.3738,403.4586 346.0458,403.9841 345.6219,404.5031 345.0961,405.0018 344.4637,405.4649 343.7217,405.8752 342.8695,406.2138 341.9088,406.4604 340.8443,406.5934 339.6839,406.5904 338.4394,406.4283 337.1264,406.0839 335.7648,405.5347 334.3791,404.759 332.9987,403.737 331.6575,402.4515 330.3946,400.8886 329.2535,399.0389 328.2826,396.8981 327.534,394.4683 327.0636,391.7588 326.9298,388.7874 327.1932,385.5811 327.9147,382.1771 329.1549,378.6237 330.9721,374.9811 333.4206,371.3217 336.5485,367.7309 340.3962,364.3065 344.9933,361.1593 350.3564,358.4122 356.4866,356.1991 363.3668,354.664 370.9587,353.9591 379.2006,354.2423 388.0046,355.6746 397.2543,358.4168 406.8028,362.6254 416.4712,368.4483 426.0472,376.0195 435.2845,385.4538 443.9036,396.8406 451.5918,410.2378 458.0062,425.6643 462.7759,443.0937 465.5069,462.4468 465.7871,483.5848 463.1935,506.3021 457.3002,530.3204 447.6887,555.2827 433.9585,580.7489 415.7405,606.1915 392.7107,630.9946 364.6059,654.4525 331.2403,675.7723 292.5231,694.0779 248.4769,708.4167 199.2563,717.7699 145.1668,721.0655 86.6828,717.1954 24.4652,705.0353 -40.6232,683.4696 -107.5039,651.4197 -174.8719,607.8759 -241.189,551.9334 -304.6809,482.8322 -363.34,400.0" stroke="#3a0ca3" stroke-opacity="0.7" stroke-width="1.5" /><polyline fill="none" points="382.7188,346.814 382.7511,346.7805 382.7904,346.749 382.8368,346.7206 382.8905,346.6964 382.9514,346.6779 383.0193,346.6663 383.0938,346.6632 383.1741,346.67 383.2593,346.6884 383.3482,346.7197 383.4393,346.7655 383.5308,346.8272 383.6205,346.9058 383.7059,347.0024 383.7844,347.1179 383.8528,347.2524 383.9078,347.4061 383.9457,347.5786 383.9627,347.7688 383.955,347.9753 383.9184,348.1957 383.849,348.4272 383.7428,348.666 383.5962,348.9078 383.4057,349.147 383.1687,349.3777 382.8828,349.5927 382.5466,349.7842 382.1596,349.9436 381.7226,350.0617 381.2376,350.1286 380.7081,350.1339 380.1393,350.0672 379.5381,349.9176 378.9136,349.6749 378.2767,349.3289 377.6409,348.8706 377.0214,348.2917 376.436,347.5858 375.9046,346.7483 375.4492,345.777 375.0935,344.6726 374.8631,343.4389 374.7848,342.0837 374.8864,340.619 375.196,339.0615 375.7414,337.4327 376.5495,335.76 377.6456,334.0759 379.0522,332.4191 380.7882,330.8342 382.8678,329.3714 385.2992,328.0867 388.0839,327.0413 391.2146,326.3009 394.675,325.9352 398.4377,326.0167 402.4636,326.6193 406.7005,327.8171 411.0822,329.6824 415.5279,332.2835 419.9416,335.6831 424.2116,339.9348 428.2108,345.0811 431.7968,351.1501 434.8133,358.1526 437.0908,366.0787 438.4492,374.8944 438.6995,384.5387 437.6475,394.9205 435.0973,405.915 430.8559,417.3619 424.7378,429.0626 416.5717,440.7785 406.206,452.2304 393.5167,463.0979 378.4143,473.0201 360.8523,481.5979 340.8355,488.3964 318.4286,492.9497 293.7647,494.7669 267.0539,493.3396 238.5914,488.1509 208.7643,478.6868 178.0586,464.4487 147.064,444.9684 116.477,419.824 87.1031,388.6584 59.8551,351.1989 35.7497,307.2777 15.9007,256.8539 1.5089,200.0364 -6.1524,137.1062 -5.7557,68.5393 4.0583,-4.9719 24.6531,-82.4985 57.3645,-162.857 103.4635,-244.5948 164.115,-325.9795" stroke="#3a0ca3" stroke-opacity="0.7" stroke-width="1.5" /><polyline fill="none" points="445.2427,367.1293 445.2845,367.1496 445.3266,367.1772 445.368,367.2126 445.4076,367.2562 445.4441,367.3084 445.4761,367.3694 445.502,367.4393 445.5203,367.5177 445.5292,367.6044 445.5269,367.6987 445.5115,367.7995 445.4811,367.9055 445.434,368.0151 445.3685,368.1263 445.283,368.2366 445.1762,368.3432 445.0469,368.443 444.8946,368.5323 444.719,368.6073 444.5203,368.6637 444.2993,368.6971 444.0577,368.7026 443.7977,368.6754 443.5225,368.6106 443.2361,368.5035 442.9435,368.3493 442.6507,368.1438 442.3647,367.8832 442.0934,367.5645 441.8461,367.1854 441.6326,366.7448 441.4639,366.2429 441.3516,365.6812 441.3081,365.0633 441.346,364.3943 441.4782,363.6817 441.7176,362.9353 442.0767,362.1673 442.5672,361.3925 443.1995,360.6283 443.9825,359.8949 444.923,359.2154 446.0251,358.615 447.2898,358.1218 448.7142,357.7658 450.2911,357.5789 452.0087,357.5943 453.8493,357.846 455.7897,358.3681 457.8,359.1938 459.8438,360.3551 461.8777,361.8809 463.8508,363.7963 465.7056,366.1216 467.3772,368.8704 468.7943,372.0484 469.8795,375.6521 470.5505,379.6672 470.7205,384.0668 470.3006,388.8104 469.2006,393.8424 467.3314,399.0906 464.6072,404.4655 460.9486,409.8592 456.2847,415.1451 450.5571,420.1778 443.7228,424.7932 435.7583,428.8093 426.6633,432.0276 416.4646,434.2353 405.2201,435.2074 393.0228,434.7108 380.0043,432.5079 366.3383,428.3619 352.2437,422.0424 337.9869,413.3323 323.8834,402.0352 310.2985,387.9834 297.6472,371.0472 286.3926,351.144 277.0428,328.2488 270.1462,302.4043 266.2855,273.7314 266.0693,242.4396 270.122,208.8369 279.071,173.3395 293.5329,136.4796 314.096,98.9126 341.302,61.4226 375.6246,24.9246 417.4468,-9.5347 467.0362,-40.7797 524.5188,-67.5125 589.8524,-88.3236 662.7985,-101.7062 742.8948,-106.0763 829.4286,-99.7981 921.4113,-81.2137 1017.555,-48.68" stroke="#3a0ca3" stroke-opacity="0.7" stroke-width="1.5" /><polyline fill="none" points="445.2427,432.8707 445.2363,432.9168 445.223,432.9654 445.2022,433.0157 445.1729,433.0668 445.1345,433.1176 445.0864,433.1669 445.028,433.2132 444.959,433.2548 444.8793,433.2901 444.7889,433.317 444.6883,433.3335 444.5781,433.3374 444.4593,433.3265 444.3333,433.2985 444.202,433.2513 444.0676,433.1826 443.9328,433.0905 443.8007,432.9733 443.6751,432.8294 443.5601,432.6579 443.4601,432.458 443.3802,432.2299 443.3257,431.9743 443.3023,431.6926 443.3157,431.3871 443.3719,431.0611 443.4768,430.7191 443.6362,430.3666 443.8556,430.0101 444.1397,429.6577 444.4927,429.3186 444.918,429.003 445.4174,428.7227 445.9917,428.4903 446.6396,428.3196 447.3582,428.2251 448.1421,428.2222 448.9835,428.3264 449.8719,428.5534 450.7941,428.9186 451.7335,429.4367 452.6705,430.1211 453.582,430.9838 454.4418,432.0342 455.2206,433.2788 455.8856,434.7209 456.4018,436.3591 456.7312,438.1874 456.8343,440.1942 456.6701,442.3613 456.1973,444.6639 455.3747,447.0697 454.1627,449.5382 452.5244,452.0207 450.4268,454.4599 447.8422,456.7897 444.7502,458.9355 441.139,460.8143 437.0072,462.3356 432.366,463.4021 427.2404,463.9109 421.6714,463.7549 415.7178,462.825 409.4575,461.0122 402.9891,458.2101 396.4327,454.318 389.9313,449.2444 383.6507,442.9107 377.7793,435.2554 372.5282,426.2381 368.1289,415.8443 364.832,404.0905 362.9041,391.0284 362.6242,376.7501 364.279,361.3925 368.1571,345.142 374.543,328.2377 383.7091,310.9754 395.907,293.7098 411.3582,276.8556 430.2436,260.8884 452.692,246.3429 478.7685,233.8108 508.462,223.9355 541.6723,217.406 578.1978,214.9478 617.7227,217.3115 659.8053,225.2593 703.8676,239.5487 749.1855,260.9129 794.882,290.0397 839.9217,327.5468 883.1093,373.9551 923.091,429.6601 958.3601,494.9005 987.2675,569.7261 1008.037,653.9648 1018.7864,747.1884 1017.555,848.68" stroke="#3a0ca3" stroke-opacity="0.7" stroke-width="1.5" /><circle cx="400" cy="400" fill="none" r="330.0" stroke="#3f37c9" stroke-dasharray="5,5" stroke-opacity="0.3" stroke-width="1" /><circle cx="400" cy="400" fill="none" r="15.0" stroke="#3f37c9" stroke-dasharray="5,5" stroke-opacity="0.3" stroke-width="1" /><path d="M415.0,400.0 C547.0099866761863,429.80039961925917 638.8009996667262,423.9600199952388 730.0,400.0" fill="none" stroke="#3f37c9" stroke-dasharray="3,3" stroke-opacity="0.4" stroke-width="1" /><path d="M410.6066017177982,410.6066017177982 C482.8796938280281,525.0238231337224 551.91551360247,585.8000988344671 633.3452377915607,633.3452377915607" fill="none" stroke="#3f37c9" stroke-dasharray="3,3" stroke-opacity="0.4" stroke-width="1" /><path d="M400.0,415.0 C370.19960038074083,547.0099866761863 376.0399800047612,638.8009996667262 400.0,730.0" fill="none" stroke="#3f37c9" stroke-dasharray="3,3" stroke-opacity="0.4" stroke-width="1" /><path d="M389.3933982822018,410.6066017177982 C274.9761768662775,482.8796938280281 214.19990116553285,551.9155136024699 166.65476220843934,633.3452377915607" fill="none" stroke="#3f37c9" stroke-dasharray="3,3" stroke-opacity="0.4" stroke-width="1" /><path d="M385.0,400.0 C252.99001332381377,370.19960038074083 161.1990003332738,376.0399800047613 70.0,400.00000000000006" fill="none" stroke="#3f37c9" stroke-dasharray="3,3" stroke-opacity="0.4" stroke-width="1" /><path d="M389.39339828220176,389.3933982822018 C317.1203061719719,274.9761768662775 248.08448639752993,214.19990116553294 166.65476220843925,166.65476220843934" fill="none" stroke="#3f37c9" stroke-dasharray="3,3" stroke-opacity="0.4" stroke-width="1" /><path d="M400.0,385.0 C429.80039961925917,252.99001332381377 423.9600199952386,161.1990003332738 399.99999999999994,70.0" fill="none" stroke="#3f37c9" stroke-dasharray="3,3" stroke-opacity="0.4" stroke-width="1" /><path d="M410.6066017177982,389.39339828220176 C525.0238231337224,317.1203061719719 585.800098834467,248.08448639752993 633.3452377915606,166.65476220843925" fill="none" stroke="#3f37c9" stroke-dasharray="3,3" stroke-opacity="0.4" stroke-width="1" /><text fill="white" font-family="Arial" font-size="14" text-anchor="middle" x="400" y="760.0">Pentagonal Resonance Structure with Toroidal Energy Flow</text><text fill="white" font-family="Arial" font-size="14" text-anchor="middle" x="400" y="780.0">Extracted from quantum measurements using FFT harmonic analysis</text><text fill="white" font-family="Arial" font-size="14" text-anchor="middle" x="400" y="800.0">Showing five-fold symmetry and recursive self-similarity</text><text fill="white" font-family="Arial" font-size="14" text-anchor="middle" x="400" y="820.0">Aligned with Quantum Consciousness Field Theory (QCFT)</text></svg>